<?xml version="1.0" standalone="no"?><!DOCTYPE svg PUBLIC "-//W3C//DTD SVG 1.1//EN" "http://www.w3.org/Graphics/SVG/1.1/DTD/svg11.dtd"><svg t="1674210903791" class="icon" viewBox="0 0 1024 1024" version="1.1" xmlns="http://www.w3.org/2000/svg" p-id="1620" id="mx_n_1674210903794" width="32" height="32" xmlns:xlink="http://www.w3.org/1999/xlink"><path d="M219.479306 172.659422a209.594451 209.594451 0 0 1-55.520924 198.584971 209.890405 209.890405 0 0 1-92.515145 53.922775v170.824508a208.469827 208.469827 0 0 1 92.278381 53.626821 208.824971 208.824971 0 0 1 54.33711 200.893411L365.029364 935.213873a209.831214 209.831214 0 0 1 295.065896-1.775723l145.72763-84.110058a210.127168 210.127168 0 0 1 146.437919-255.408092v-165.734104a208.824971 208.824971 0 0 1-147.148208-255.881619L658.793064 87.602312a209.831214 209.831214 0 0 1-293.053411 0.651098z m-79.61156-32.791676L376.157225 3.492254l12.252486 3.255492a200.656647 200.656647 0 0 0 23.676301 31.489479 141.525087 141.525087 0 0 0 199.887167-0.414335 202.846705 202.846705 0 0 0 23.676301-31.134335l13.081156-3.492254 235.993526 136.138728 3.255491 12.252485A140.696416 140.696416 0 0 0 1012.99052 366.982659l7.87237 7.87237v272.277457l-7.280462 7.280462A141.702659 141.702659 0 0 0 887.861272 869.038613l-3.729018 13.909826-236.289479 136.138729-9.41133-2.486012a141.169942 141.169942 0 0 0-224.924855-33.501965 142.057803 142.057803 0 0 0-24.38659 32.554913l-13.969017 3.729017-235.993526-136.138728-3.373873-12.60763a140.933179 140.933179 0 0 0-20.361619-173.369711A140.518844 140.518844 0 0 0 11.83815 657.017341l-8.878612-8.878613v-272.277456l6.570173-11.364625a141.584277 141.584277 0 0 0 105.892254-41.433526q47.826127-47.766936 19.769711-175.559768z m880.995144 233.685086v1.124625h-7.87237V366.982659h1.124625a7.280462 7.280462 0 0 1 6.688554 6.688555z m0 0" fill="#467CFD" p-id="1621"></path><path d="M514.071676 659.384971a147.976879 147.976879 0 1 0-148.450404-147.976879 148.391214 148.391214 0 0 0 148.450404 147.976879z m0 68.187746a216.460578 216.460578 0 1 1 216.756532-216.460578 216.57896 216.57896 0 0 1-216.756532 216.460578z m0 0" fill="#8BAEF7" p-id="1622"></path></svg>